<?xml version="1.0" encoding="utf-8"?>
<!-- Generator: Adobe Illustrator 16.0.0, SVG Export Plug-In . SVG Version: 6.00 Build 0)  -->
<!DOCTYPE svg PUBLIC "-//W3C//DTD SVG 1.1//EN" "http://www.w3.org/Graphics/SVG/1.1/DTD/svg11.dtd">
<svg version="1.1" id="Layer_1" xmlns="http://www.w3.org/2000/svg" xmlns:xlink="http://www.w3.org/1999/xlink" x="0px" y="0px"
	 width="846.951px" height="723.454px" viewBox="0 0 846.951 723.454" enable-background="new 0 0 846.951 723.454"
	 xml:space="preserve">
<path fill="#D1E8F3" d="M839.189,418.801l-470.69,273.243c-10.398,6.042-27.303,6.042-37.77,0L7.962,505.694
	c-5.267-3.04-7.897-7.033-7.886-11.017L0,521.556c-0.013,3.984,2.619,7.976,7.886,11.015l322.768,186.352
	c10.467,6.043,27.371,6.043,37.77,0L839.115,445.68c5.162-3.003,7.752-6.93,7.762-10.863l0.074-26.877
	C846.941,411.874,844.357,415.799,839.189,418.801"/>
<path fill="#FFFFFF" d="M839.066,396.924c10.465,6.044,10.52,15.836,0.123,21.881l-470.69,273.239
	c-10.398,6.044-27.303,6.044-37.77,0L7.962,505.694c-10.467-6.044-10.521-15.835-0.123-21.876l470.69-273.242
	c10.398-6.044,27.303-6.044,37.77,0L839.066,396.924z"/>
<path fill="#D1E8F3" d="M805.855,412.099c-1.002,2.321-3.059,4.536-6.211,6.37L370.746,667.433c-9.243,5.366-24.267,5.366-33.563,0
	L50.445,501.874c-3.204-1.847-5.301-4.103-6.317-6.463c-1.912-4.511,0.159-9.455,6.213-12.977l428.896-248.949
	c9.246-5.369,24.254-5.369,33.555,0L799.539,399.04C805.672,402.576,807.783,407.574,805.855,412.099"/>
<path fill="#BBD27F" d="M805.855,412.099c-1.002,2.321-3.059,4.536-6.211,6.37L370.746,667.433c-9.243,5.366-24.267,5.366-33.563,0
	L50.445,501.874c-3.204-1.847-5.301-4.103-6.317-6.463c1.002-2.334,3.061-4.551,6.213-6.384l428.896-248.949
	c9.246-5.368,24.254-5.368,33.555,0l286.748,165.557C802.742,407.483,804.84,409.724,805.855,412.099"/>
<polygon fill="#85B24F" points="636.047,333.733 495.814,415.228 354.681,333.746 494.912,252.251 "/>
<polygon fill="#85B24F" points="381.942,505.635 484.84,446.243 587.855,505.721 484.973,565.119 "/>
<path fill="#FFFFFF" d="M519.617,484.458c19.58,11.306,19.686,29.628,0.232,40.935c-19.455,11.306-51.09,11.306-70.668,0
	c-19.581-11.304-19.685-29.629-0.23-40.935C468.402,473.155,500.035,473.155,519.617,484.458"/>
<path fill="#8299CE" d="M529.055,506.869c-0.145,1.229-0.449,2.44-0.893,3.64c-1.74,4.673-5.744,9.124-11.998,12.762
	c-17.436,10.112-45.781,10.112-63.317,0c-7.977-4.626-12.348-10.532-13.08-16.56c-0.014-0.113-0.031-0.24-0.031-0.352
	c-0.75-7.113,3.557-14.341,12.906-19.765c17.418-10.131,45.766-10.131,63.315,0C525.576,492.146,529.947,499.597,529.055,506.869"/>
<path fill="#AFE0EC" d="M528.273,509.757c-0.033,0.257-0.066,0.496-0.111,0.75c-1.74,4.675-5.744,9.126-11.998,12.761
	c-17.436,10.115-45.781,10.115-63.317,0c-7.977-4.626-12.348-10.526-13.08-16.557c-0.014-0.113-0.033-0.24-0.033-0.352
	c1.629-4.817,5.682-9.427,12.125-13.16c17.436-10.146,45.786-10.146,63.317,0C523.168,497.809,527.539,503.712,528.273,509.757"/>
<polygon fill="#85B24F" points="388.048,458.2 388.042,458.204 386.313,457.197 401.016,448.709 402.384,449.503 402.401,449.494 
	419.167,459.173 478.5,424.692 337.367,343.211 197.133,424.704 338.265,506.188 404.512,467.69 "/>
<polygon fill="#85B24F" points="234.621,546.696 251.749,536.717 268.349,546.3 320.952,515.653 179.819,434.17 78.534,493.178 
	219.667,574.661 251.222,556.279 "/>
<polygon fill="#85B24F" points="356.864,515.795 266.891,568.144 267.195,568.32 267.208,568.313 292.393,582.854 292.382,582.858 
	293.564,583.547 281.128,590.727 279.663,589.876 279.683,589.865 255.071,575.678 255.065,575.68 254.501,575.353 238.026,584.937 
	354.22,652.019 473.059,582.879 "/>
<polygon fill="#85B24F" points="654.123,344.172 513.893,425.667 540.377,440.958 551.559,434.502 551.574,434.51 552.943,433.717 
	567.648,442.207 565.918,443.211 565.912,443.208 555.086,449.449 630.086,492.75 770.316,411.256 "/>
<polygon fill="#138591" points="771.387,401.254 777.107,404.557 777.107,402.356 771.387,399.053 "/>
<polygon fill="#1296A3" points="771.387,399.053 771.387,401.256 763.758,405.659 763.758,403.457 "/>
<polygon fill="#1296A3" points="780.838,402.257 780.838,405.673 771.363,411.151 771.363,407.729 "/>
<polygon fill="#138591" points="761.889,402.257 761.889,405.673 771.361,411.151 771.361,407.729 "/>
<path fill="#12A4B3" d="M771.369,396.79l-9.48,5.469l9.475,5.47l9.475-5.47L771.369,396.79z M765.664,402.356l5.723-3.304
	l5.721,3.304l-5.721,3.303L765.664,402.356z"/>
<polygon fill="#16567E" points="773.678,367.317 773.678,403.72 771.43,405.019 771.43,368.613 "/>
<polygon fill="#0D3A56" points="769.188,367.317 769.188,403.72 771.432,405.019 771.432,368.613 "/>
<polygon fill="#626337" points="769.188,367.317 771.434,366.024 773.678,367.317 771.432,368.613 "/>
<polygon fill="#16567E" points="779.162,382.628 779.162,385.182 776.918,386.481 776.918,383.924 "/>
<polygon fill="#0D3A56" points="771.432,380.759 771.432,383.311 776.916,386.479 776.916,383.924 "/>
<polygon fill="#1C6D9F" points="771.432,380.759 773.68,379.462 779.162,382.628 776.916,383.924 "/>
<polygon fill="#16567E" points="779.162,376.083 779.162,382.761 776.916,384.059 776.916,377.378 "/>
<polygon fill="#0D3A56" points="774.672,376.083 774.672,382.761 776.918,384.059 776.918,377.378 "/>
<polygon fill="#626337" points="774.672,376.083 776.92,374.79 779.162,376.083 776.918,377.378 "/>
<polygon fill="#0D3A56" points="763.703,378.442 763.703,380.996 765.947,382.296 765.947,379.739 "/>
<polygon fill="#16567E" points="771.432,376.573 771.432,379.126 765.947,382.294 765.947,379.739 "/>
<polygon fill="#1C6D9F" points="771.432,376.573 769.186,375.279 763.703,378.444 765.947,379.739 "/>
<polygon fill="#0D3A56" points="763.703,373.714 763.703,378.575 765.947,379.875 765.947,375.008 "/>
<polygon fill="#16567E" points="768.193,373.714 768.193,378.575 765.947,379.875 765.947,375.008 "/>
<polygon fill="#626337" points="768.193,373.714 765.945,372.417 763.703,373.714 765.947,375.008 "/>
<path fill="#138591" d="M793.355,356.874c0,11.551-9.365,20.908-20.908,20.908c-11.551,0-20.916-9.357-20.916-20.908
	c0-1.682,0.197-3.317,0.578-4.885c2.193-9.196,10.469-16.031,20.338-16.031c1.563,0,3.088,0.171,4.553,0.502
	C786.357,338.538,793.355,346.887,793.355,356.874"/>
<path fill="#12A4B3" d="M788.605,353.475c0,10.092-8.186,18.277-18.277,18.277c-10.104,0-18.281-8.186-18.281-18.277
	c0-0.503,0.021-0.998,0.063-1.485c2.193-9.196,10.469-16.031,20.338-16.031c1.563,0,3.088,0.171,4.553,0.502
	C783.799,339.118,788.605,345.733,788.605,353.475"/>
<path fill="#32C1D4" d="M767.168,350.241c0,2.621-2.123,4.744-4.744,4.744s-4.746-2.123-4.746-4.744s2.125-4.745,4.746-4.745
	S767.168,347.62,767.168,350.241"/>
<polygon fill="#138591" points="208.503,409.01 214.226,412.313 214.226,410.113 208.503,406.809 "/>
<polygon fill="#1296A3" points="208.503,406.809 208.503,409.012 200.874,413.415 200.874,411.213 "/>
<polygon fill="#1296A3" points="217.954,410.013 217.954,413.429 208.479,418.905 208.479,415.483 "/>
<polygon fill="#138591" points="199.004,410.013 199.005,413.429 208.479,418.905 208.479,415.483 "/>
<path fill="#12A4B3" d="M208.487,404.546l-9.482,5.469l9.475,5.468l9.476-5.468L208.487,404.546z M202.782,410.113l5.72-3.305
	l5.722,3.305l-5.722,3.302L202.782,410.113z"/>
<polygon fill="#16567E" points="210.795,375.073 210.795,411.477 208.551,412.773 208.551,376.369 "/>
<polygon fill="#0D3A56" points="206.305,375.073 206.305,411.477 208.551,412.773 208.551,376.369 "/>
<polygon fill="#626337" points="206.305,375.073 208.552,373.78 210.795,375.073 208.551,376.369 "/>
<polygon fill="#16567E" points="216.279,390.384 216.279,392.936 214.033,394.236 214.033,391.68 "/>
<polygon fill="#0D3A56" points="208.55,388.512 208.55,391.065 214.034,394.235 214.034,391.68 "/>
<polygon fill="#1C6D9F" points="208.55,388.512 210.797,387.218 216.28,390.384 214.034,391.68 "/>
<polygon fill="#16567E" points="216.279,383.839 216.279,390.518 214.033,391.813 214.033,385.134 "/>
<polygon fill="#0D3A56" points="211.79,383.839 211.79,390.518 214.034,391.813 214.034,385.134 "/>
<polygon fill="#626337" points="211.79,383.839 214.036,382.544 216.279,383.839 214.034,385.134 "/>
<polygon fill="#0D3A56" points="200.819,386.198 200.819,388.75 203.065,390.051 203.065,387.495 "/>
<polygon fill="#16567E" points="208.55,384.327 208.55,386.881 203.065,390.05 203.065,387.495 "/>
<polygon fill="#1C6D9F" points="208.55,384.327 206.302,383.032 200.819,386.198 203.065,387.495 "/>
<polygon fill="#0D3A56" points="200.819,381.465 200.819,386.331 203.065,387.628 203.065,382.765 "/>
<polygon fill="#16567E" points="205.311,381.465 205.311,386.331 203.064,387.628 203.064,382.765 "/>
<polygon fill="#626337" points="205.311,381.465 203.063,380.173 200.819,381.465 203.064,382.765 "/>
<path fill="#138591" d="M230.473,364.628c0,11.55-9.364,20.909-20.909,20.909c-11.549,0-20.915-9.359-20.915-20.909
	c0-1.68,0.198-3.315,0.578-4.883c2.193-9.196,10.47-16.031,20.337-16.031c1.563,0,3.089,0.169,4.553,0.502
	C223.476,346.292,230.473,354.641,230.473,364.628"/>
<path fill="#12A4B3" d="M225.723,361.228c0,10.095-8.185,18.28-18.279,18.28c-10.101,0-18.28-8.186-18.28-18.28
	c0-0.499,0.023-0.997,0.064-1.482c2.192-9.196,10.468-16.031,20.336-16.031c1.563,0,3.088,0.169,4.554,0.499
	C220.916,346.871,225.723,353.489,225.723,361.228"/>
<path fill="#32C1D4" d="M204.286,357.995c0,2.621-2.125,4.745-4.745,4.745s-4.745-2.124-4.745-4.745
	c0-2.619,2.125-4.743,4.745-4.743S204.286,355.376,204.286,357.995"/>
<polygon fill="#138591" points="78.189,461.506 83.911,464.809 83.911,462.606 78.189,459.306 "/>
<polygon fill="#1296A3" points="78.189,459.306 78.189,461.506 70.561,465.912 70.561,463.71 "/>
<polygon fill="#1296A3" points="87.64,462.509 87.64,465.924 78.165,471.402 78.165,467.979 "/>
<polygon fill="#138591" points="68.689,462.509 68.691,465.924 78.164,471.402 78.164,467.979 "/>
<path fill="#12A4B3" d="M78.172,457.043l-9.482,5.466l9.475,5.47l9.477-5.47L78.172,457.043z M72.468,462.606l5.722-3.301
	l5.72,3.301l-5.72,3.306L72.468,462.606z"/>
<polygon fill="#16567E" points="80.48,427.569 80.48,463.97 78.236,465.271 78.236,428.863 "/>
<polygon fill="#0D3A56" points="75.99,427.569 75.99,463.97 78.236,465.271 78.236,428.863 "/>
<polygon fill="#626337" points="75.99,427.569 78.238,426.274 80.48,427.569 78.236,428.863 "/>
<polygon fill="#16567E" points="85.964,442.878 85.964,445.433 83.72,446.731 83.72,444.175 "/>
<polygon fill="#0D3A56" points="78.236,441.009 78.236,443.563 83.72,446.731 83.72,444.175 "/>
<polygon fill="#1C6D9F" points="78.236,441.009 80.483,439.712 85.965,442.878 83.72,444.175 "/>
<polygon fill="#16567E" points="85.964,436.334 85.964,443.015 83.72,444.311 83.72,437.631 "/>
<polygon fill="#0D3A56" points="81.476,436.334 81.476,443.015 83.721,444.311 83.721,437.631 "/>
<polygon fill="#626337" points="81.476,436.334 83.723,435.039 85.964,436.334 83.721,437.631 "/>
<polygon fill="#0D3A56" points="70.505,438.694 70.505,441.247 72.751,442.547 72.751,439.989 "/>
<polygon fill="#16567E" points="78.236,436.823 78.236,439.376 72.751,442.546 72.751,439.989 "/>
<polygon fill="#1C6D9F" points="78.236,436.823 75.988,435.53 70.505,438.694 72.751,439.989 "/>
<polygon fill="#0D3A56" points="70.505,433.964 70.505,438.828 72.751,440.125 72.751,435.258 "/>
<polygon fill="#16567E" points="74.996,433.964 74.996,438.828 72.75,440.125 72.75,435.258 "/>
<polygon fill="#626337" points="74.996,433.964 72.748,432.667 70.506,433.964 72.75,435.258 "/>
<path fill="#138591" d="M100.159,417.124c0,11.551-9.365,20.91-20.909,20.91c-11.55,0-20.916-9.359-20.916-20.91
	c0-1.682,0.198-3.314,0.58-4.885c2.191-9.193,10.469-16.031,20.335-16.031c1.563,0,3.089,0.171,4.552,0.505
	C93.161,398.789,100.159,407.137,100.159,417.124"/>
<path fill="#12A4B3" d="M95.409,413.725c0,10.095-8.186,18.281-18.279,18.281c-10.102,0-18.28-8.187-18.28-18.281
	c0-0.502,0.022-0.997,0.066-1.485c2.19-9.194,10.466-16.028,20.334-16.028c1.563,0,3.09,0.168,4.553,0.499
	C90.602,399.37,95.409,405.984,95.409,413.725"/>
<path fill="#32C1D4" d="M73.972,410.491c0,2.622-2.125,4.747-4.746,4.747c-2.619,0-4.745-2.125-4.745-4.747
	c0-2.618,2.126-4.744,4.745-4.744C71.847,405.747,73.972,407.873,73.972,410.491"/>
<polygon fill="#626337" points="317.697,469.691 319.944,468.397 322.187,469.691 319.942,470.988 "/>
<path fill="#32C1D4" d="M315.679,452.615c0,2.621-2.124,4.745-4.745,4.745s-4.747-2.124-4.747-4.745s2.126-4.746,4.747-4.746
	S315.679,449.994,315.679,452.615"/>
<polygon fill="#12A4B3" points="578.818,506.778 564.139,515.254 534.371,498.093 549.072,489.605 "/>
<polygon fill="#E8F4FA" points="537.84,498.827 537.803,488.384 550.238,481.205 550.221,491.677 "/>
<polygon fill="#D4D2D3" points="562.703,504.432 575.131,497.259 575.131,495.559 562.703,502.734 "/>
<polygon fill="#FFFFFF" points="575.119,495.564 575.131,495.559 549.945,481.021 549.932,481.028 548.775,480.354 536.342,487.533 
	537.805,488.384 537.809,488.38 562.42,502.571 562.402,502.579 563.865,503.432 576.301,496.251 "/>
<polygon fill="#E8F4FA" points="563.9,513.871 563.865,503.434 576.301,496.251 576.285,506.722 "/>
<polygon fill="#D1E8F4" points="562.438,513.022 563.9,513.873 563.865,503.434 562.701,502.757 562.701,502.723 537.502,488.205 
	537.502,488.21 536.34,487.533 536.375,497.975 537.84,498.827 537.811,490.061 562.406,504.261 "/>
<polygon fill="#E8F4FA" points="284.803,480.466 200.188,431.396 167.17,416.844 251.786,465.909 "/>
<polygon fill="#D1E8F4" points="218.958,518.482 134.341,469.413 134.446,506.302 219.063,555.37 "/>
<polygon fill="#E8F4FA" points="251.784,465.909 167.169,416.844 134.341,469.413 218.956,518.482 "/>
<polygon fill="#E8F4FA" points="251.784,465.909 218.956,518.482 219.062,555.37 284.907,517.355 284.802,480.466 "/>
<polygon fill="#32783D" points="294.397,478.055 202.102,424.522 164.282,407.854 256.58,461.383 "/>
<polygon fill="#D1E8F4" points="218.984,521.595 126.688,468.063 129.856,470.332 222.15,523.861 "/>
<polygon fill="#276030" points="256.579,461.383 164.283,407.853 126.688,468.062 218.984,521.595 "/>
<polygon fill="#6A9F41" points="256.579,461.383 218.984,521.595 222.15,523.861 256.601,468.69 291.249,483.967 294.396,478.055 
	"/>
<polygon fill="#12A4B3" points="179.168,503.898 179.168,524.751 197.265,535.232 197.323,514.383 "/>
<polygon fill="#0A3A54" points="179.168,524.751 181.811,523.226 181.811,505.425 179.168,503.898 "/>
<polygon fill="#32BEC0" points="181.81,523.224 197.357,532.201 197.265,535.232 179.167,524.751 "/>
<polygon fill="#12A4B3" points="148.247,486.048 148.247,506.898 166.345,517.382 166.403,496.529 "/>
<polygon fill="#0A3A54" points="160.818,476.899 163.461,475.374 163.461,457.574 160.818,456.049 "/>
<polygon fill="#32BEC0" points="150.89,505.373 166.437,514.35 166.343,517.382 148.247,506.898 "/>
<polygon fill="#12A4B3" points="239.867,513.598 239.867,534.451 229.435,540.51 229.376,519.657 "/>
<polygon fill="#0A3A54" points="239.867,534.451 237.224,532.925 237.224,515.125 239.867,513.601 "/>
<polygon fill="#32BEC0" points="237.226,532.925 229.341,537.478 229.435,540.51 239.868,534.451 "/>
<polygon fill="#12A4B3" points="278.452,491.322 278.452,512.174 245.798,531.061 245.741,510.208 "/>
<polygon fill="#0A3A54" points="278.452,512.174 275.808,510.649 275.808,492.847 278.452,491.324 "/>
<polygon fill="#32BEC0" points="275.81,510.649 245.706,528.03 245.8,531.061 278.452,512.174 "/>
<path fill="#0A3A54" d="M261.006,478.711c0.007,2.738-1.918,6.077-4.299,7.452c-1.616,0.932-3.024,0.721-3.767-0.354
	c-0.355-0.518-0.565-1.227-0.565-2.109c-0.007-2.746,1.92-6.079,4.3-7.455c0.689-0.402,1.346-0.596,1.926-0.596
	C260.024,475.643,260.998,476.762,261.006,478.711"/>
<path fill="#12A4B3" d="M259.173,477.768c0.009,2.735-1.916,6.069-4.299,7.445c-0.696,0.402-1.353,0.596-1.934,0.596
	c-0.355-0.518-0.564-1.227-0.564-2.109c-0.007-2.746,1.917-6.079,4.299-7.455c0.689-0.402,1.347-0.596,1.927-0.596
	C258.964,476.167,259.173,476.878,259.173,477.768"/>
<polygon fill="#D1E8F4" points="172.841,432.581 182.064,437.909 182.064,431.128 172.841,425.803 "/>
<polygon fill="#E8F4FA" points="172.841,425.803 172.841,432.581 160.539,439.685 160.539,432.904 "/>
<polygon fill="#E8F4FA" points="188.081,430.969 188.081,445.284 172.803,463.753 172.803,439.788 "/>
<polygon fill="#D1E8F4" points="157.524,430.969 157.525,454.919 172.803,463.753 172.803,439.788 "/>
<path fill="#FFFFFF" d="M172.815,422.155l-15.291,8.813l15.278,8.819l15.278-8.819L172.815,422.155z M163.616,431.128l9.223-5.325
	l9.227,5.325l-9.227,5.329L163.616,431.128z"/>
<polygon fill="#12A4B3" points="172.803,432.581 169.45,434.519 172.803,436.455 176.155,434.519 "/>
<polygon fill="#E8F4FA" points="159.222,439.788 159.224,443.841 165.684,447.615 165.684,443.552 "/>
<polygon fill="#E8F4FA" points="164.503,450.644 164.504,454.695 170.966,458.471 170.966,454.407 "/>
<polygon fill="#D1E8F4" points="186.137,434.679 186.136,438.731 179.675,442.506 179.675,438.441 "/>
<polygon fill="#D1E8F4" points="181.324,444.164 181.322,448.216 174.862,451.992 174.862,447.928 "/>
<polygon fill="#D1E8F4" points="245.739,504.243 245.748,507.468 251.813,510.993 251.805,507.769 "/>
<polygon fill="#D1E8F4" points="251.805,507.768 251.813,510.993 282.03,493.549 282.021,490.322 "/>
<polygon fill="#FFFFFF" points="245.739,504.243 251.805,507.769 282.021,490.322 275.956,486.799 "/>
<polygon fill="#F9F9FA" points="435.5,359.933 435.5,428.003 338.038,484.588 338.038,416.518 "/>
<polygon fill="#EAEAEA" points="338.128,416.518 338.038,484.588 240.133,428.009 240.133,359.939 "/>
<polygon fill="#FFFFFF" points="435.5,359.933 338.128,416.518 240.133,359.939 337.504,303.354 "/>
<polygon fill="#F9F9FA" points="416.345,258.008 416.345,359.926 337.995,405.418 337.995,303.499 "/>
<polygon fill="#EAEAEA" points="338.067,303.499 337.995,405.418 259.288,359.933 259.288,258.016 "/>
<polygon fill="#FFFFFF" points="416.345,258.008 338.066,303.499 259.288,258.013 337.565,212.526 "/>
<polygon fill="#F9F9FA" points="397.931,178.12 397.931,259.623 337.933,294.458 337.988,212.954 "/>
<polygon fill="#EAEAEA" points="337.988,212.954 337.933,294.458 277.663,259.629 277.663,178.123 "/>
<polygon fill="#FFFFFF" points="397.931,178.12 337.988,212.954 277.661,178.123 337.604,143.291 "/>
<polygon fill="#32783D" points="338.028,464.373 435.498,407.799 435.498,428.003 338.028,484.588 "/>
<polyline fill="#276030" points="338.028,484.588 338.028,464.371 240.132,407.809 240.132,428.012 "/>
<polygon fill="#6A9F41" points="401.55,168.412 401.55,175.93 337.988,212.954 337.988,205.435 "/>
<polygon fill="#6A9F41" points="337.988,205.436 337.988,212.954 273.728,175.936 273.728,168.418 "/>
<polygon fill="#85B24F" points="401.55,168.412 337.843,205.435 273.727,168.418 337.435,131.396 "/>
<polygon fill="#276030" points="393.928,168.412 337.818,201.02 281.35,168.418 337.46,135.811 "/>
<polygon fill="#BBD27F" points="337.459,135.811 337.459,141.146 389.329,171.093 393.928,168.414 "/>
<polygon fill="#BBD27F" points="281.35,168.418 337.459,135.811 337.459,141.146 285.878,170.926 "/>
<polygon fill="#12A4B3" points="364.982,411.239 364.982,432.09 346.885,442.573 346.827,421.721 "/>
<polygon fill="#0A3A54" points="364.982,432.09 362.339,430.566 362.339,412.765 364.982,411.239 "/>
<polygon fill="#32BEC0" points="362.34,430.563 346.793,439.541 346.886,442.573 364.982,432.09 "/>
<polygon fill="#12A4B3" points="397.208,392.633 397.208,413.485 379.109,423.968 379.051,403.117 "/>
<polygon fill="#0A3A54" points="397.208,413.485 394.563,411.961 394.563,394.159 397.208,392.633 "/>
<polygon fill="#32BEC0" points="394.563,411.961 379.018,420.936 379.11,423.968 397.208,413.485 "/>
<polygon fill="#12A4B3" points="428.126,374.782 428.126,395.634 410.03,406.115 409.972,385.264 "/>
<polygon fill="#0A3A54" points="428.126,395.634 425.484,394.107 425.484,376.308 428.126,374.782 "/>
<polygon fill="#32BEC0" points="425.484,394.107 409.938,403.085 410.032,406.117 428.128,395.634 "/>
<polygon fill="#12A4B3" points="311.608,411.239 311.608,432.09 329.705,442.573 329.764,421.721 "/>
<polygon fill="#0A3A54" points="311.608,432.09 314.251,430.566 314.251,412.765 311.608,411.239 "/>
<polygon fill="#32BEC0" points="314.251,430.563 329.798,439.541 329.704,442.573 311.608,432.09 "/>
<polygon fill="#12A4B3" points="279.384,392.633 279.384,413.485 297.481,423.968 297.539,403.117 "/>
<polygon fill="#0A3A54" points="279.384,413.485 282.026,411.961 282.026,394.159 279.384,392.633 "/>
<polygon fill="#32BEC0" points="282.026,411.961 297.574,420.936 297.48,423.968 279.384,413.485 "/>
<polygon fill="#12A4B3" points="248.463,374.782 248.463,395.634 266.56,406.115 266.618,385.264 "/>
<polygon fill="#0A3A54" points="248.463,395.634 251.106,394.107 251.106,376.308 248.463,374.782 "/>
<polygon fill="#32BEC0" points="251.105,394.107 266.653,403.085 266.56,406.117 248.462,395.634 "/>
<polygon fill="#12A4B3" points="304.505,303.029 304.505,323.879 322.601,334.362 322.659,313.511 "/>
<polygon fill="#0A3A54" points="304.505,323.881 307.146,322.354 307.146,304.556 304.505,303.029 "/>
<polygon fill="#32BEC0" points="307.146,322.354 322.694,331.331 322.601,334.362 304.503,323.881 "/>
<polygon fill="#12A4B3" points="273.583,285.174 273.583,306.027 291.681,316.511 291.739,295.658 "/>
<polygon fill="#0A3A54" points="273.583,306.027 276.226,304.502 276.226,286.701 273.583,285.177 "/>
<polygon fill="#32BEC0" points="276.226,304.502 291.772,313.479 291.68,316.511 273.583,306.027 "/>
<polygon fill="#12A4B3" points="304.505,342.375 304.505,363.227 322.601,373.711 322.659,352.857 "/>
<polygon fill="#0A3A54" points="304.505,363.227 307.146,361.701 307.146,343.899 304.505,342.375 "/>
<polygon fill="#32BEC0" points="307.146,361.701 322.694,370.676 322.601,373.711 304.503,363.227 "/>
<polygon fill="#12A4B3" points="273.583,324.523 273.583,345.374 291.681,355.857 291.739,335.006 "/>
<polygon fill="#0A3A54" points="273.583,345.374 276.226,343.849 276.226,326.048 273.583,324.523 "/>
<polygon fill="#32BEC0" points="276.226,343.849 291.772,352.825 291.68,355.857 273.583,345.374 "/>
<polygon fill="#276030" points="337.995,399.112 416.345,353.634 416.345,359.927 337.995,405.418 "/>
<polygon fill="#276030" points="337.995,399.104 259.288,353.63 259.288,359.933 337.995,405.418 "/>
<polygon fill="#12A4B3" points="370.804,303.029 370.804,323.879 352.707,334.362 352.649,313.511 "/>
<polygon fill="#0A3A54" points="370.804,323.881 368.161,322.354 368.161,304.556 370.804,303.029 "/>
<polygon fill="#32BEC0" points="368.161,322.354 352.615,331.331 352.708,334.362 370.806,323.881 "/>
<polygon fill="#12A4B3" points="401.725,285.174 401.725,306.027 383.628,316.511 383.569,295.658 "/>
<polygon fill="#0A3A54" points="401.725,306.027 399.082,304.502 399.082,286.701 401.725,285.177 "/>
<polygon fill="#32BEC0" points="399.083,304.502 383.536,313.479 383.628,316.511 401.726,306.027 "/>
<polygon fill="#12A4B3" points="370.804,342.375 370.804,363.227 352.707,373.711 352.649,352.857 "/>
<polygon fill="#0A3A54" points="370.804,363.227 368.161,361.701 368.161,343.899 370.804,342.375 "/>
<polygon fill="#32BEC0" points="368.161,361.701 352.615,370.676 352.708,373.711 370.806,363.227 "/>
<polygon fill="#12A4B3" points="401.725,324.523 401.725,345.374 383.628,355.857 383.569,335.006 "/>
<polygon fill="#0A3A54" points="401.725,345.374 399.082,343.849 399.082,326.048 401.725,324.523 "/>
<polygon fill="#32BEC0" points="399.083,343.849 383.536,352.825 383.628,355.857 401.726,345.374 "/>
<polygon fill="#12A4B3" points="364.405,213.906 364.405,234.759 346.308,245.24 346.249,224.39 "/>
<polygon fill="#0A3A54" points="364.405,234.759 361.761,233.233 361.761,215.433 364.405,213.908 "/>
<polygon fill="#32BEC0" points="361.761,233.231 346.215,242.209 346.308,245.24 364.405,234.759 "/>
<polygon fill="#12A4B3" points="390.11,199.065 390.11,219.916 372.013,230.399 371.954,209.548 "/>
<polygon fill="#0A3A54" points="390.11,219.916 387.466,218.391 387.466,200.591 390.11,199.065 "/>
<polygon fill="#32BEC0" points="387.468,218.391 371.92,227.367 372.013,230.399 390.11,219.916 "/>
<polygon fill="#12A4B3" points="311.583,213.906 311.583,234.759 329.68,245.24 329.738,224.39 "/>
<polygon fill="#0A3A54" points="311.583,234.759 314.226,233.233 314.226,215.433 311.583,213.908 "/>
<polygon fill="#32BEC0" points="314.226,233.231 329.772,242.209 329.679,245.24 311.583,234.759 "/>
<polygon fill="#12A4B3" points="285.878,199.065 285.878,219.916 303.974,230.399 304.032,209.548 "/>
<polygon fill="#0A3A54" points="285.878,219.916 288.521,218.391 288.521,200.591 285.878,199.065 "/>
<polygon fill="#32BEC0" points="288.52,218.391 304.065,227.367 303.974,230.399 285.876,219.916 "/>
<polygon fill="#12A4B3" points="285.878,227.343 285.878,248.194 303.974,258.677 304.032,237.825 "/>
<polygon fill="#0A3A54" points="285.878,248.194 288.521,246.671 288.521,228.869 285.878,227.345 "/>
<polygon fill="#32BEC0" points="288.52,246.671 304.065,255.646 303.974,258.677 285.876,248.194 "/>
<polygon fill="#F9F9FA" points="592.555,276.951 592.555,333.616 495.811,389.508 495.811,332.808 "/>
<polygon fill="#EAEAEA" points="403.258,279.37 403.261,336.034 495.813,389.508 495.813,332.808 "/>
<polygon fill="#FFFFFF" points="403.258,279.37 500.039,223.539 592.557,276.951 495.813,332.808 "/>
<polygon fill="#85B24F" points="585.408,223.537 585.408,277.015 495.969,328.686 495.969,275.173 "/>
<polygon fill="#BBD27F" points="410.405,225.773 410.407,279.249 495.969,328.684 495.969,275.173 "/>
<polygon fill="#B0CC38" points="410.405,225.773 499.877,174.155 585.408,223.537 495.969,275.173 "/>
<polygon fill="#E8F4FA" points="592.555,238.728 592.555,266.082 495.811,321.971 495.811,294.584 "/>
<polygon fill="#D1E8F4" points="403.258,241.147 403.261,268.5 495.813,321.971 495.813,294.581 "/>
<polygon fill="#FFFFFF" points="403.258,241.147 500.039,185.314 592.557,238.728 495.813,294.581 "/>
<polygon fill="#85B24F" points="585.408,185.314 585.408,238.791 495.969,290.462 495.969,236.952 "/>
<polygon fill="#BBD27F" points="410.405,187.552 410.407,241.025 495.969,290.462 495.969,236.952 "/>
<polygon fill="#B0CC38" points="410.405,187.552 499.877,135.932 585.408,185.314 495.969,236.952 "/>
<polygon fill="#E8F4FA" points="592.555,200.505 592.555,227.858 495.811,283.749 495.811,256.36 "/>
<polygon fill="#D1E8F4" points="403.258,202.924 403.261,230.276 495.813,283.749 495.813,256.36 "/>
<polygon fill="#FFFFFF" points="403.258,202.924 500.039,147.091 592.557,200.505 495.813,256.36 "/>
<polygon fill="#85B24F" points="585.408,147.091 585.408,200.567 495.969,252.237 495.969,198.726 "/>
<polygon fill="#BBD27F" points="410.405,149.327 410.407,202.804 495.969,252.237 495.969,198.726 "/>
<polygon fill="#B0CC38" points="410.405,149.327 499.877,97.707 585.408,147.091 495.969,198.726 "/>
<polygon fill="#BBD27F" points="592.555,162.28 592.555,189.634 495.811,245.525 495.811,218.137 "/>
<polygon fill="#D1E8F4" points="403.258,164.701 403.261,192.053 495.813,245.527 495.813,218.137 "/>
<polygon fill="#FFFFFF" points="403.258,164.701 500.039,108.867 592.557,162.28 495.813,218.137 "/>
<polygon fill="#85B24F" points="585.408,108.867 585.408,162.344 495.969,214.014 495.969,160.504 "/>
<polygon fill="#BBD27F" points="410.405,111.104 410.407,164.58 495.969,214.014 495.969,160.504 "/>
<polygon fill="#B0CC38" points="410.405,111.104 499.877,59.486 585.408,108.867 495.969,160.504 "/>
<polygon fill="#F9F9FA" points="592.555,93.537 592.555,151.381 495.811,207.274 495.811,149.392 "/>
<polygon fill="#EAEAEA" points="403.258,95.956 403.261,153.801 495.813,207.274 495.813,149.392 "/>
<polygon fill="#FFFFFF" points="403.258,95.956 500.039,40.122 592.557,93.537 495.813,149.392 "/>
<polygon fill="#D1E8F4" points="500.111,43.324 581.039,90.049 581.039,83.22 500.109,36.494 "/>
<polygon fill="#E8F4FA" points="500.109,36.494 500.111,43.324 409.083,95.879 409.083,89.047 "/>
<polygon fill="#E8F4FA" points="592.613,82.91 592.613,93.506 495.857,149.392 495.857,138.773 "/>
<polygon fill="#D1E8F4" points="403.279,85.322 403.282,95.918 495.857,149.392 495.857,138.773 "/>
<path fill="#FFFFFF" d="M500.059,29.475L403.28,85.322l92.577,53.451l96.756-55.863L500.059,29.475z M415,85.632l85.109-49.138
	l80.93,46.724l-85.107,49.14L415,85.632z"/>
<polygon fill="#FFFFFF" points="500.111,43.324 420.916,89.044 495.932,132.357 575.123,86.633 "/>
<polygon fill="#12A4B3" points="585.463,248.894 585.463,264.018 504.078,311.032 504.037,295.905 "/>
<polygon fill="#0A3A54" points="585.463,264.02 583.547,262.911 583.547,250.001 585.463,248.895 "/>
<polygon fill="#32BEC0" points="583.547,262.911 504.012,308.831 504.08,311.029 585.463,264.02 "/>
<polygon fill="#12A4B3" points="585.463,211.059 585.463,226.184 504.078,273.196 504.037,258.068 "/>
<polygon fill="#0A3A54" points="585.463,226.184 583.547,225.076 583.547,212.163 585.463,211.059 "/>
<polygon fill="#32BEC0" points="583.547,225.076 504.012,270.995 504.08,273.196 585.463,226.184 "/>
<polygon fill="#12A4B3" points="585.463,173.223 585.463,188.351 504.078,235.36 504.037,220.235 "/>
<polygon fill="#0A3A54" points="585.463,188.348 583.547,187.241 583.547,174.33 585.463,173.223 "/>
<polygon fill="#32BEC0" points="583.547,187.241 504.012,233.161 504.08,235.36 585.463,188.351 "/>
<polygon fill="#12A4B3" points="408.964,250.092 408.964,265.216 488.064,310.909 488.105,295.784 "/>
<polygon fill="#0A3A54" points="408.964,265.216 410.881,264.107 410.881,251.198 408.964,250.091 "/>
<polygon fill="#32BEC0" points="410.881,264.107 488.133,308.71 488.064,310.909 408.963,265.216 "/>
<polygon fill="#12A4B3" points="408.964,212.255 408.964,227.381 488.064,273.074 488.105,257.949 "/>
<polygon fill="#0A3A54" points="408.964,227.381 410.881,226.274 410.881,213.363 408.964,212.255 "/>
<polygon fill="#32BEC0" points="410.881,226.274 488.133,270.876 488.064,273.074 408.963,227.381 "/>
<polygon fill="#12A4B3" points="408.964,174.42 408.964,189.545 488.064,235.237 488.105,220.112 "/>
<polygon fill="#0A3A54" points="408.964,189.545 410.881,188.438 410.881,175.526 408.964,174.42 "/>
<polygon fill="#32BEC0" points="410.881,188.438 488.133,233.04 488.064,235.238 408.963,189.545 "/>
<polygon fill="#12A4B3" points="522.273,332.359 522.273,353.21 504.176,363.693 504.115,342.841 "/>
<polygon fill="#0A3A54" points="522.273,353.212 519.629,351.686 519.629,333.886 522.273,332.359 "/>
<polygon fill="#32BEC0" points="519.629,351.686 504.082,360.663 504.176,363.693 522.273,353.212 "/>
<polygon fill="#12A4B3" points="554.498,313.755 554.498,334.604 536.398,345.089 536.342,324.236 "/>
<polygon fill="#0A3A54" points="554.498,334.606 551.854,333.08 551.854,315.28 554.498,313.755 "/>
<polygon fill="#32BEC0" points="551.854,333.08 536.307,342.059 536.4,345.089 554.498,334.606 "/>
<polygon fill="#12A4B3" points="585.418,295.902 585.418,316.754 567.32,327.237 567.262,306.384 "/>
<polygon fill="#0A3A54" points="585.418,316.754 582.773,315.229 582.773,297.429 585.418,295.902 "/>
<polygon fill="#32BEC0" points="582.773,315.229 567.229,324.206 567.32,327.237 585.418,316.754 "/>
<polygon fill="#12A4B3" points="471.012,332.359 471.012,353.21 489.111,363.693 489.168,342.841 "/>
<polygon fill="#0A3A54" points="471.012,353.212 473.656,351.686 473.656,333.886 471.012,332.359 "/>
<polygon fill="#32BEC0" points="473.656,351.686 489.205,360.663 489.109,363.693 471.012,353.212 "/>
<polygon fill="#12A4B3" points="438.787,313.755 438.787,334.604 456.887,345.089 456.945,324.236 "/>
<polygon fill="#0A3A54" points="438.787,334.606 441.431,333.08 441.431,315.28 438.787,313.755 "/>
<polygon fill="#32BEC0" points="441.429,333.08 456.979,342.059 456.885,345.089 438.787,334.606 "/>
<polygon fill="#12A4B3" points="407.868,295.902 407.868,316.754 425.965,327.237 426.023,306.384 "/>
<polygon fill="#0A3A54" points="407.868,316.754 410.511,315.229 410.511,297.429 407.868,295.902 "/>
<polygon fill="#32BEC0" points="410.511,315.229 426.058,324.206 425.965,327.237 407.867,316.754 "/>
<polygon fill="#12A4B3" points="538.385,143.322 538.385,164.175 520.287,174.656 520.229,153.806 "/>
<polygon fill="#0A3A54" points="538.385,164.175 535.74,162.649 535.74,144.851 538.385,143.323 "/>
<polygon fill="#32BEC0" points="535.742,162.649 520.195,171.624 520.287,174.656 538.385,164.175 "/>
<polygon fill="#12A4B3" points="569.307,125.47 569.307,146.321 551.209,156.804 551.15,135.951 "/>
<polygon fill="#0A3A54" points="569.307,146.322 566.662,144.798 566.662,126.997 569.307,125.47 "/>
<polygon fill="#32BEC0" points="566.662,144.795 551.115,153.773 551.209,156.804 569.307,146.322 "/>
<polygon fill="#12A4B3" points="455.9,143.322 455.9,164.175 473.996,174.656 474.055,153.806 "/>
<polygon fill="#0A3A54" points="455.9,164.175 458.543,162.649 458.543,144.851 455.9,143.323 "/>
<polygon fill="#32BEC0" points="458.541,162.649 474.09,171.624 473.996,174.656 455.898,164.175 "/>
<polygon fill="#12A4B3" points="424.979,125.47 424.979,146.321 443.076,156.804 443.134,135.951 "/>
<polygon fill="#0A3A54" points="424.979,146.322 427.621,144.798 427.621,126.997 424.979,125.47 "/>
<polygon fill="#32BEC0" points="427.621,144.795 443.167,153.773 443.074,156.804 424.977,146.322 "/>
<polygon fill="#E8F4FA" points="466.666,80.763 466.711,90.401 452.873,98.437 452.83,88.8 "/>
<polygon fill="#D1E8F4" points="452.843,88.798 452.873,98.436 438.974,90.403 438.929,80.766 "/>
<polygon fill="#FFFFFF" points="466.666,80.763 452.839,88.8 438.927,80.766 452.753,72.729 "/>
<path fill="#A7CFE1" d="M359.078,18.025l-6.746-3.922c1.315,0.766,2.404,1.953,3.182,3.548c0.245,0.498,0.581,0.859,0.984,1.094
	l6.747,3.923c-0.403-0.234-0.741-0.599-0.984-1.095C361.482,19.977,360.395,18.788,359.078,18.025"/>
<path fill="#D1E8F4" d="M328.882,56.063c2.11-1.217,4.023-1.329,5.402-0.528l6.745,3.921c-1.38-0.802-3.292-0.688-5.401,0.53
	c-4.188,2.417-7.574,8.284-7.561,13.095c0.006,2.391,0.851,4.073,2.212,4.865l-6.747-3.922c-1.359-0.792-2.204-2.472-2.212-4.865
	C321.307,64.348,324.694,58.48,328.882,56.063"/>
<path fill="#FFFFFF" d="M335.628,59.985c-4.188,2.417-7.574,8.284-7.561,13.095c0.014,4.818,3.422,6.753,7.609,4.336
	c4.193-2.421,7.58-8.28,7.567-13.101C343.229,59.506,339.82,57.563,335.628,59.985"/>
<path fill="#FFFFFF" d="M335.565,38.164c-9.889,5.71-18.811,17.607-22.729,30.315c-1.039,3.371,0.072,5.954,2.482,5.761
	c0.617-0.043,1.26-0.268,1.895-0.636c1.834-1.059,3.58-3.292,4.35-5.797c2.42-7.847,7.933-15.194,14.034-18.715
	c6.104-3.524,11.636-2.556,14.093,2.479c0.787,1.603,2.533,1.821,4.366,0.766c0.637-0.37,1.28-0.888,1.899-1.557
	c2.404-2.591,3.496-6.443,2.443-8.607C354.415,34.026,345.455,32.455,335.565,38.164"/>
<path fill="#D1E8F4" d="M306.088,64.559c3.919-12.708,12.842-24.606,22.73-30.314c6.757-3.904,13.081-4.403,17.68-1.73l6.746,3.92
	c-4.598-2.671-10.922-2.17-17.679,1.73c-9.889,5.71-18.812,17.607-22.729,30.315c-0.793,2.569-0.335,4.682,0.997,5.456l-6.748-3.921
	C305.755,69.241,305.298,67.129,306.088,64.559"/>
<path fill="#D1E8F4" d="M290.926,56.087c6.521-21.14,21.364-40.93,37.813-50.427c11.238-6.491,21.76-7.326,29.409-2.882l6.745,3.922
	c-7.646-4.444-18.168-3.609-29.409,2.881c-16.447,9.495-31.29,29.287-37.812,50.426c-0.793,2.57-0.334,4.682,0.998,5.454
	l-6.747-3.919C290.593,60.768,290.136,58.658,290.926,56.087"/>
<path fill="#FFFFFF" d="M335.484,9.581c-16.447,9.495-31.29,29.287-37.812,50.426c-1.038,3.37,0.07,5.951,2.482,5.764
	c0.618-0.049,1.261-0.271,1.896-0.638c1.834-1.059,3.577-3.297,4.35-5.797c5.021-16.278,16.451-31.523,29.115-38.833
	c12.669-7.315,24.146-5.299,29.239,5.141c0.786,1.601,2.538,1.82,4.372,0.763c0.632-0.364,1.277-0.884,1.894-1.551
	c2.405-2.593,3.497-6.442,2.444-8.607C366.846,2.693,351.938,0.081,335.484,9.581"/>
<polygon fill="#E8F4FA" points="283.781,555.41 368.397,506.343 401.415,491.786 316.8,540.854 "/>
<polygon fill="#E8F4FA" points="349.626,593.426 434.243,544.357 434.137,581.244 349.521,630.313 "/>
<polygon fill="#E8F4FA" points="316.8,540.854 401.415,491.786 434.244,544.357 349.628,593.426 "/>
<polygon fill="#D1E8F4" points="316.8,540.854 349.628,593.426 349.522,630.313 283.677,592.297 283.782,555.41 "/>
<polygon fill="#32783D" points="274.187,552.998 366.481,499.469 404.302,482.797 312.005,536.329 "/>
<polygon fill="#D1E8F4" points="349.601,596.538 441.896,543.009 438.73,545.275 346.435,598.807 "/>
<polygon fill="#276030" points="312.005,536.328 404.301,482.797 441.896,543.009 349.601,596.539 "/>
<polygon fill="#6A9F41" points="312.005,536.328 349.601,596.539 346.435,598.807 311.983,543.635 277.335,558.914 274.187,552.998 
	"/>
<polygon fill="#12A4B3" points="376.02,586.577 376.02,607.431 357.923,617.912 357.864,597.061 "/>
<polygon fill="#0A3A54" points="376.02,607.431 373.377,605.903 373.377,588.104 376.02,586.579 "/>
<polygon fill="#32BEC0" points="373.377,605.903 357.83,614.88 357.923,617.912 376.021,607.431 "/>
<polygon fill="#12A4B3" points="426.32,557.536 426.32,578.388 382.439,603.758 382.38,582.905 "/>
<polygon fill="#0A3A54" points="426.32,578.388 423.677,576.863 423.677,559.062 426.32,557.536 "/>
<polygon fill="#32BEC0" points="423.679,576.863 382.346,600.725 382.439,603.758 426.32,578.388 "/>
<polygon fill="#12A4B3" points="328.717,588.543 328.717,609.396 339.151,615.455 339.21,594.603 "/>
<polygon fill="#0A3A54" points="328.717,609.396 331.36,607.869 331.36,590.069 328.717,588.543 "/>
<polygon fill="#32BEC0" points="331.358,607.869 339.244,612.421 339.151,615.455 328.716,609.396 "/>
<polygon fill="#12A4B3" points="290.134,566.268 290.134,587.117 322.785,606.005 322.846,585.152 "/>
<polygon fill="#0A3A54" points="290.134,587.118 292.775,585.592 292.775,567.794 290.134,566.268 "/>
<polygon fill="#32BEC0" points="292.775,585.592 322.878,602.974 322.785,606.005 290.132,587.118 "/>
<path fill="#0A3A54" d="M307.579,553.654c-0.008,2.738,1.916,6.078,4.299,7.453c1.615,0.932,3.023,0.721,3.765-0.354
	c0.356-0.518,0.565-1.23,0.565-2.109c0.008-2.745-1.918-6.08-4.299-7.454c-0.689-0.401-1.346-0.595-1.926-0.595
	C308.561,550.586,307.586,551.706,307.579,553.654"/>
<path fill="#12A4B3" d="M309.411,552.709c-0.008,2.74,1.917,6.073,4.299,7.448c0.695,0.403,1.354,0.596,1.934,0.596
	c0.355-0.518,0.564-1.23,0.564-2.109c0.007-2.745-1.917-6.08-4.299-7.454c-0.689-0.401-1.346-0.595-1.927-0.595
	C309.619,551.11,309.411,551.822,309.411,552.709"/>
<polygon fill="#D1E8F4" points="349.67,534.128 340.442,539.455 340.442,532.672 349.67,527.349 "/>
<polygon fill="#E8F4FA" points="349.67,527.347 349.67,534.128 361.972,541.23 361.972,534.448 "/>
<polygon fill="#E8F4FA" points="334.429,532.512 334.429,546.828 349.708,565.297 349.708,541.334 "/>
<polygon fill="#D1E8F4" points="364.987,532.512 364.985,556.463 349.708,565.297 349.708,541.334 "/>
<path fill="#FFFFFF" d="M334.429,532.514l15.279,8.82l15.277-8.82l-15.291-8.815L334.429,532.514z M349.67,538l-9.226-5.328
	l9.226-5.325l9.224,5.325L349.67,538z"/>
<polygon fill="#12A4B3" points="349.708,534.128 353.06,536.064 349.708,538 346.354,536.064 "/>
<polygon fill="#E8F4FA" points="363.289,541.334 363.287,545.386 356.825,549.16 356.825,545.099 "/>
<polygon fill="#E8F4FA" points="358.008,552.19 358.006,556.24 351.545,560.017 351.545,555.952 "/>
<polygon fill="#D1E8F4" points="336.374,536.224 336.375,540.275 342.836,544.052 342.836,539.987 "/>
<polygon fill="#D1E8F4" points="341.187,545.71 341.188,549.762 347.649,553.537 347.649,549.473 "/>
<polygon fill="#D1E8F4" points="322.845,579.188 322.837,582.413 316.771,585.938 316.78,582.714 "/>
<polygon fill="#D1E8F4" points="316.78,582.714 316.771,585.938 286.555,568.492 286.563,565.269 "/>
<polygon fill="#FFFFFF" points="322.845,579.188 316.78,582.714 286.563,565.266 292.628,561.742 "/>
<polygon fill="#E8F4FA" points="749.01,368.953 749.01,417.173 639.172,480.833 639.172,432.612 "/>
<polygon fill="#D1E8F4" points="639.172,432.612 639.172,480.833 551.635,430.254 551.635,382.032 "/>
<polygon fill="#FFFFFF" points="749.01,368.953 639.172,432.612 551.395,382.032 661.16,318.373 "/>
<polygon fill="#E8F4FA" points="751.807,356.662 751.807,367.269 639.262,432.707 639.262,422.1 "/>
<polygon fill="#D1E8F4" points="639.26,422.1 639.26,432.707 548.596,380.48 548.596,369.873 "/>
<polygon fill="#FFFFFF" points="751.807,356.662 639.055,422.1 548.596,369.873 661.35,304.435 "/>
<polygon fill="#276030" points="741.053,356.663 639.02,415.87 559.35,369.873 661.383,310.665 "/>
<polygon fill="#6A9F41" points="661.383,310.663 661.383,318.192 734.564,360.442 741.053,356.663 "/>
<polygon fill="#85B24F" points="559.35,369.873 661.385,310.663 661.385,318.192 565.74,373.413 "/>
<polygon fill="#D1E8F4" points="661.426,330.14 671.648,336.041 671.648,332.105 661.426,326.205 "/>
<polygon fill="#E8F4FA" points="661.424,326.205 661.424,330.14 647.791,338.01 647.791,334.075 "/>
<polygon fill="#E8F4FA" points="678.314,331.929 678.314,338.034 661.383,347.823 661.383,341.704 "/>
<polygon fill="#D1E8F4" points="644.449,331.929 644.451,338.034 661.383,347.823 661.383,341.704 "/>
<path fill="#FFFFFF" d="M661.395,322.161l-16.945,9.766l16.934,9.778l16.934-9.778L661.395,322.161z M651.201,332.105l10.223-5.9
	l10.225,5.9l-10.225,5.902L651.201,332.105z"/>
<polygon fill="#12A4B3" points="661.426,330.14 654.607,334.073 661.426,338.008 668.242,334.073 "/>
<polygon fill="#DD5526" points="620.803,462.522 532.402,411.376 545.617,385.038 634.021,436.183 "/>
<polygon fill="#F37346" points="634.02,436.183 545.617,385.038 550.809,382.041 639.209,433.188 "/>
<polygon fill="#F15D28" points="639.209,433.188 639.26,451.865 620.805,462.522 634.02,436.183 "/>
<polygon fill="#ECF2FA" points="545.414,418.997 538.912,415.135 552.123,388.803 558.67,392.589 "/>
<polygon fill="#ECF2FA" points="559.248,426.983 552.738,423.134 565.949,396.802 572.494,400.588 "/>
<polygon fill="#ECF2FA" points="573.082,434.97 566.564,431.139 579.781,404.805 586.32,408.591 "/>
<polygon fill="#ECF2FA" points="586.916,442.957 580.395,439.139 593.605,412.801 600.146,416.591 "/>
<polygon fill="#ECF2FA" points="600.75,450.944 594.219,447.14 607.432,420.802 613.973,424.594 "/>
<polygon fill="#ECF2FA" points="614.584,458.931 608.047,455.142 621.262,428.802 627.799,432.593 "/>
<polygon fill="#FFFFFF" points="626.453,425.803 621.262,428.802 627.799,432.593 633.004,429.591 "/>
<polygon fill="#FFFFFF" points="612.621,417.815 607.428,420.814 613.967,424.605 619.168,421.604 "/>
<polygon fill="#FFFFFF" points="598.803,409.801 593.607,412.801 600.146,416.591 605.35,413.589 "/>
<polygon fill="#FFFFFF" points="584.975,401.804 579.779,404.803 586.318,408.594 591.52,405.59 "/>
<polygon fill="#FFFFFF" points="571.139,393.805 565.949,396.802 572.49,400.592 577.689,397.589 "/>
<polygon fill="#FFFFFF" points="557.311,385.807 552.123,388.803 558.67,392.589 563.857,389.594 "/>
<polygon fill="#12A4B3" points="683.648,423.028 683.648,443.883 656.23,459.747 656.174,438.895 "/>
<polygon fill="#0A3A54" points="683.648,443.883 681.008,442.356 681.008,424.556 683.648,423.031 "/>
<polygon fill="#32BEC0" points="681.008,442.356 656.139,456.716 656.23,459.747 683.65,443.883 "/>
<polygon fill="#12A4B3" points="738.287,391.486 738.287,412.336 710.869,428.202 710.811,407.351 "/>
<polygon fill="#0A3A54" points="738.287,412.336 735.645,410.812 735.645,393.012 738.287,391.486 "/>
<polygon fill="#32BEC0" points="735.645,410.811 710.775,425.17 710.869,428.202 738.289,412.336 "/>
<polygon fill="#12A4B3" points="706.553,409.806 706.553,430.658 688.455,441.141 688.396,420.29 "/>
<polygon fill="#0A3A54" points="706.553,430.658 703.91,429.134 703.91,411.334 706.553,409.809 "/>
<polygon fill="#32BEC0" points="703.912,429.134 688.363,438.109 688.455,441.141 706.553,430.658 "/>
<polygon fill="#E8F4FA" points="711.305,352.31 711.35,361.946 697.512,369.979 697.469,360.342 "/>
<polygon fill="#D1E8F4" points="697.48,360.342 697.512,369.98 683.611,361.948 683.566,352.31 "/>
<polygon fill="#FFFFFF" points="711.305,352.31 697.48,360.342 683.564,352.311 697.391,344.275 "/>
<path fill="#16567E" d="M698.439,321.118c0.486,0.279,0.488,0.73,0.006,1.012c-0.479,0.28-1.26,0.28-1.746,0
	c-0.486-0.281-0.488-0.732-0.006-1.012C697.176,320.837,697.955,320.837,698.439,321.118"/>
<polygon fill="#138591" points="598.893,515.235 604.613,518.54 604.613,516.336 598.893,513.035 "/>
<polygon fill="#1296A3" points="598.893,513.035 598.893,515.235 591.266,519.639 591.266,517.437 "/>
<polygon fill="#1296A3" points="608.344,516.236 608.344,519.652 598.869,525.132 598.869,521.709 "/>
<polygon fill="#138591" points="589.395,516.236 589.395,519.652 598.869,525.132 598.869,521.709 "/>
<path fill="#12A4B3" d="M598.875,510.771l-9.48,5.468l9.475,5.471l9.475-5.471L598.875,510.771z M593.172,516.336l5.721-3.301
	l5.721,3.301l-5.721,3.303L593.172,516.336z"/>
<polygon fill="#16567E" points="601.184,481.298 601.184,517.7 598.938,518.998 598.938,482.593 "/>
<polygon fill="#0D3A56" points="596.693,481.298 596.693,517.7 598.939,518.998 598.939,482.593 "/>
<polygon fill="#626337" points="596.693,481.298 598.939,480.005 601.184,481.298 598.939,482.593 "/>
<polygon fill="#16567E" points="606.67,496.607 606.67,499.161 604.422,500.461 604.422,497.904 "/>
<polygon fill="#0D3A56" points="598.939,494.738 598.939,497.292 604.424,500.458 604.424,497.904 "/>
<polygon fill="#1C6D9F" points="598.939,494.738 601.188,493.443 606.67,496.61 604.424,497.904 "/>
<polygon fill="#16567E" points="606.67,490.063 606.67,496.741 604.422,498.039 604.422,491.358 "/>
<polygon fill="#0D3A56" points="602.176,490.063 602.176,496.741 604.424,498.039 604.424,491.358 "/>
<polygon fill="#626337" points="602.176,490.063 604.426,488.767 606.67,490.063 604.424,491.358 "/>
<polygon fill="#0D3A56" points="591.209,492.422 591.209,494.976 593.455,496.275 593.455,493.719 "/>
<polygon fill="#16567E" points="598.939,490.553 598.939,493.106 593.453,496.275 593.453,493.72 "/>
<polygon fill="#1C6D9F" points="598.939,490.553 596.691,489.258 591.209,492.424 593.453,493.72 "/>
<polygon fill="#0D3A56" points="591.209,487.691 591.209,492.557 593.455,493.854 593.455,488.988 "/>
<polygon fill="#16567E" points="595.699,487.691 595.699,492.557 593.453,493.854 593.453,488.988 "/>
<polygon fill="#626337" points="595.699,487.691 593.453,486.396 591.209,487.691 593.453,488.988 "/>
<path fill="#138591" d="M620.863,470.854c0,11.549-9.367,20.909-20.91,20.909c-11.549,0-20.916-9.36-20.916-20.909
	c0-1.684,0.199-3.313,0.58-4.884c2.191-9.195,10.469-16.032,20.336-16.032c1.561,0,3.09,0.169,4.551,0.503
	C613.863,452.517,620.863,460.865,620.863,470.854"/>
<path fill="#12A4B3" d="M616.111,467.453c0,10.095-8.184,18.279-18.279,18.279c-10.1,0-18.279-8.185-18.279-18.279
	c0-0.501,0.023-0.997,0.066-1.484c2.191-9.196,10.467-16.031,20.334-16.031c1.563,0,3.088,0.172,4.553,0.503
	C611.307,453.098,616.111,459.713,616.111,467.453"/>
<path fill="#32C1D4" d="M594.676,464.221c0,2.621-2.125,4.745-4.746,4.745s-4.746-2.124-4.746-4.745c0-2.62,2.125-4.744,4.746-4.744
	S594.676,461.601,594.676,464.221"/>
<polygon fill="#138591" points="475.779,586.315 481.5,589.618 481.5,587.416 475.779,584.113 "/>
<polygon fill="#1296A3" points="475.779,584.113 475.779,586.316 468.15,590.721 468.15,588.518 "/>
<polygon fill="#1296A3" points="485.23,587.317 485.23,590.732 475.754,596.211 475.754,592.788 "/>
<polygon fill="#138591" points="466.279,587.317 466.279,590.732 475.752,596.211 475.752,592.788 "/>
<path fill="#12A4B3" d="M475.762,581.852l-9.482,5.466l9.475,5.47l9.477-5.47L475.762,581.852z M470.057,587.416l5.721-3.303
	l5.721,3.303l-5.721,3.305L470.057,587.416z"/>
<polygon fill="#16567E" points="478.07,552.378 478.07,588.78 475.824,590.077 475.824,553.675 "/>
<polygon fill="#0D3A56" points="473.578,552.378 473.578,588.78 475.824,590.077 475.824,553.675 "/>
<polygon fill="#626337" points="473.578,552.378 475.828,551.084 478.07,552.378 475.824,553.675 "/>
<polygon fill="#16567E" points="483.555,567.688 483.555,570.243 481.311,571.542 481.311,568.984 "/>
<polygon fill="#0D3A56" points="475.824,565.816 475.824,568.371 481.309,571.54 481.309,568.984 "/>
<polygon fill="#1C6D9F" points="475.824,565.816 478.072,564.523 483.555,567.688 481.309,568.984 "/>
<polygon fill="#16567E" points="483.555,561.144 483.555,567.82 481.311,569.12 481.311,562.44 "/>
<polygon fill="#0D3A56" points="479.064,561.144 479.064,567.82 481.309,569.12 481.309,562.44 "/>
<polygon fill="#626337" points="479.064,561.144 481.313,559.849 483.555,561.144 481.309,562.44 "/>
<polygon fill="#0D3A56" points="468.094,563.502 468.094,566.057 470.34,567.355 470.34,564.798 "/>
<polygon fill="#16567E" points="475.824,561.631 475.824,564.187 470.34,567.355 470.34,564.798 "/>
<polygon fill="#1C6D9F" points="475.824,561.631 473.578,560.338 468.094,563.502 470.34,564.798 "/>
<polygon fill="#0D3A56" points="468.094,558.771 468.094,563.635 470.34,564.935 470.34,560.067 "/>
<polygon fill="#16567E" points="472.586,558.771 472.586,563.635 470.34,564.935 470.34,560.067 "/>
<polygon fill="#626337" points="472.586,558.771 470.336,557.478 468.094,558.771 470.34,560.067 "/>
<path fill="#138591" d="M497.75,541.936c0,11.548-9.367,20.905-20.91,20.905c-11.551,0-20.915-9.357-20.915-20.905
	c0-1.685,0.195-3.318,0.579-4.884c2.189-9.2,10.467-16.035,20.336-16.035c1.563,0,3.088,0.171,4.551,0.503
	C490.75,523.598,497.75,531.947,497.75,541.936"/>
<path fill="#12A4B3" d="M492.998,538.533c0,10.096-8.188,18.279-18.279,18.279c-10.102,0-18.279-8.184-18.279-18.279
	c0-0.502,0.021-0.994,0.064-1.485c2.189-9.196,10.467-16.031,20.336-16.031c1.563,0,3.088,0.171,4.553,0.502
	C488.191,524.177,492.998,530.793,492.998,538.533"/>
<path fill="#32C1D4" d="M471.561,535.302c0,2.621-2.125,4.745-4.746,4.745c-2.619,0-4.746-2.124-4.746-4.745
	s2.127-4.746,4.746-4.746C469.436,530.556,471.561,532.681,471.561,535.302"/>
<polygon fill="#138591" points="483.844,456.903 489.563,460.205 489.563,458.005 483.844,454.699 "/>
<polygon fill="#1296A3" points="483.842,454.701 483.842,456.903 476.213,461.306 476.213,459.105 "/>
<polygon fill="#1296A3" points="493.293,457.904 493.293,461.321 483.818,466.799 483.818,463.375 "/>
<polygon fill="#138591" points="474.344,457.904 474.344,461.321 483.818,466.799 483.818,463.375 "/>
<path fill="#12A4B3" d="M483.828,452.438l-9.484,5.468l9.475,5.469l9.477-5.469L483.828,452.438z M478.121,458.005l5.723-3.306
	l5.719,3.306l-5.719,3.301L478.121,458.005z"/>
<polygon fill="#16567E" points="486.133,422.965 486.133,459.368 483.889,460.666 483.889,424.262 "/>
<polygon fill="#0D3A56" points="481.645,422.965 481.645,459.368 483.889,460.666 483.889,424.262 "/>
<polygon fill="#626337" points="481.645,422.965 483.891,421.671 486.133,422.965 483.889,424.262 "/>
<polygon fill="#16567E" points="491.617,438.275 491.617,440.83 489.373,442.128 489.373,439.57 "/>
<polygon fill="#0D3A56" points="483.889,436.405 483.889,438.96 489.373,442.128 489.373,439.573 "/>
<polygon fill="#1C6D9F" points="483.889,436.405 486.135,435.111 491.619,438.275 489.373,439.573 "/>
<polygon fill="#16567E" points="491.617,431.73 491.617,438.411 489.373,439.705 489.373,433.027 "/>
<polygon fill="#0D3A56" points="487.129,431.73 487.129,438.411 489.373,439.705 489.373,433.027 "/>
<polygon fill="#626337" points="487.129,431.73 489.375,430.437 491.617,431.73 489.373,433.027 "/>
<polygon fill="#0D3A56" points="476.158,434.092 476.158,436.643 478.406,437.942 478.406,435.386 "/>
<polygon fill="#16567E" points="483.889,432.22 483.889,434.774 478.404,437.94 478.404,435.386 "/>
<polygon fill="#1C6D9F" points="483.889,432.22 481.641,430.926 476.156,434.092 478.404,435.386 "/>
<polygon fill="#0D3A56" points="476.158,429.36 476.158,434.225 478.406,435.521 478.406,430.654 "/>
<polygon fill="#16567E" points="480.65,429.36 480.65,434.225 478.404,435.521 478.404,430.654 "/>
<polygon fill="#626337" points="480.65,429.36 478.402,428.065 476.158,429.36 478.404,430.654 "/>
<path fill="#138591" d="M505.811,412.522c0,11.549-9.365,20.907-20.908,20.907c-11.551,0-20.916-9.358-20.916-20.907
	c0-1.682,0.197-3.316,0.578-4.887c2.193-9.194,10.471-16.029,20.338-16.029c1.564,0,3.088,0.169,4.553,0.5
	C498.814,394.186,505.811,402.533,505.811,412.522"/>
<path fill="#12A4B3" d="M501.063,409.122c0,10.094-8.184,18.278-18.279,18.278c-10.102,0-18.281-8.185-18.281-18.278
	c0-0.503,0.021-0.999,0.064-1.486c2.191-9.194,10.467-16.029,20.336-16.029c1.564,0,3.088,0.169,4.553,0.5
	C496.256,394.767,501.063,401.381,501.063,409.122"/>
<path fill="#32C1D4" d="M479.625,405.888c0,2.621-2.125,4.745-4.744,4.745c-2.621,0-4.746-2.124-4.746-4.745
	c0-2.619,2.125-4.744,4.746-4.744C477.5,401.144,479.625,403.269,479.625,405.888"/>
<polygon fill="#138591" points="198.218,573.879 203.94,577.184 203.94,574.98 198.218,571.678 "/>
<polygon fill="#1296A3" points="198.218,571.678 198.218,573.879 190.59,578.284 190.59,576.082 "/>
<polygon fill="#1296A3" points="207.669,574.882 207.669,578.297 198.194,583.775 198.194,580.35 "/>
<polygon fill="#138591" points="188.718,574.882 188.718,578.297 198.194,583.775 198.194,580.35 "/>
<path fill="#12A4B3" d="M198.202,569.416l-9.482,5.466l9.475,5.471l9.475-5.471L198.202,569.416z M192.497,574.98l5.72-3.303
	l5.722,3.303l-5.722,3.304L192.497,574.98z"/>
<polygon fill="#16567E" points="200.51,539.943 200.51,576.343 198.265,577.643 198.265,541.237 "/>
<polygon fill="#0D3A56" points="196.02,539.943 196.02,576.343 198.266,577.643 198.266,541.237 "/>
<polygon fill="#626337" points="196.02,539.943 198.267,538.646 200.509,539.943 198.266,541.237 "/>
<polygon fill="#16567E" points="205.993,555.253 205.993,557.807 203.749,559.104 203.749,556.55 "/>
<polygon fill="#0D3A56" points="198.265,553.383 198.265,555.936 203.749,559.104 203.749,556.55 "/>
<polygon fill="#1C6D9F" points="198.265,553.383 200.512,552.089 205.994,555.253 203.749,556.55 "/>
<polygon fill="#16567E" points="205.993,548.706 205.993,555.386 203.749,556.684 203.749,550.003 "/>
<polygon fill="#0D3A56" points="201.505,548.706 201.505,555.386 203.749,556.684 203.749,550.003 "/>
<polygon fill="#626337" points="201.505,548.706 203.751,547.409 205.993,548.706 203.749,550.003 "/>
<polygon fill="#0D3A56" points="190.534,551.067 190.534,553.62 192.78,554.918 192.78,552.364 "/>
<polygon fill="#16567E" points="198.265,549.196 198.265,551.749 192.78,554.918 192.78,552.364 "/>
<polygon fill="#1C6D9F" points="198.265,549.196 196.017,547.903 190.534,551.067 192.78,552.364 "/>
<polygon fill="#0D3A56" points="190.534,546.335 190.534,551.2 192.78,552.498 192.78,547.632 "/>
<polygon fill="#16567E" points="195.024,546.335 195.024,551.2 192.779,552.498 192.779,547.632 "/>
<polygon fill="#626337" points="195.024,546.335 192.776,545.04 190.534,546.335 192.779,547.632 "/>
<path fill="#138591" d="M220.187,529.497c0,11.55-9.364,20.91-20.908,20.91c-11.551,0-20.915-9.36-20.915-20.91
	c0-1.683,0.198-3.314,0.579-4.885c2.191-9.195,10.469-16.029,20.336-16.029c1.563,0,3.09,0.167,4.552,0.502
	C213.189,511.162,220.187,519.509,220.187,529.497"/>
<path fill="#12A4B3" d="M215.438,526.097c0,10.096-8.187,18.279-18.279,18.279c-10.101,0-18.28-8.184-18.28-18.279
	c0-0.502,0.022-0.995,0.065-1.484c2.19-9.196,10.467-16.029,20.335-16.029c1.563,0,3.09,0.168,4.553,0.501
	C210.631,511.742,215.438,518.356,215.438,526.097"/>
<path fill="#32C1D4" d="M194.001,522.863c0,2.621-2.125,4.747-4.745,4.747s-4.746-2.126-4.746-4.747
	c0-2.619,2.126-4.744,4.746-4.744S194.001,520.244,194.001,522.863"/>
<polygon fill="#E52825" points="192.847,477.16 198.808,477.16 198.808,481.472 192.847,481.472 192.847,488.21 188.305,488.21 
	188.305,481.472 182.327,481.472 182.327,477.16 188.305,477.16 188.305,470.704 192.847,470.704 "/>
<path fill="#E52825" d="M193.55,488.911h-5.949v-6.734h-5.978v-5.721h5.978v-6.455h5.949v6.455h5.962v5.721h-5.962V488.911z
	 M189.011,487.505h3.131v-6.738h5.962v-2.901h-5.962v-6.456h-3.131v6.456h-5.979v2.901h5.979V487.505z"/>
<circle fill="none" stroke="#E52825" stroke-miterlimit="10" cx="190.568" cy="479.456" r="16.346"/>
<path fill="#DD5526" d="M313.108,534.49c2.643,0,4.787-2.145,4.787-4.788c0-2.633-2.145-4.779-4.787-4.779
	c-2.641,0-4.777,2.146-4.777,4.779C308.331,532.346,310.468,534.49,313.108,534.49"/>
<path fill="#DD5526" d="M313.108,531.137c-0.789,0-1.436-0.638-1.436-1.435c0-0.788,0.646-1.425,1.436-1.425
	c0.797,0,1.436,0.637,1.436,1.425C314.544,530.499,313.905,531.137,313.108,531.137"/>
<path fill="#DD5526" d="M327.563,534.49c2.642,0,4.787-2.145,4.787-4.788c0-2.633-2.146-4.779-4.787-4.779
	c-2.643,0-4.777,2.146-4.777,4.779C322.786,532.346,324.921,534.49,327.563,534.49"/>
<path fill="#DD5526" d="M327.563,531.137c-0.789,0-1.436-0.638-1.436-1.435c0-0.788,0.646-1.425,1.436-1.425
	c0.797,0,1.436,0.637,1.436,1.425C328.999,530.499,328.36,531.137,327.563,531.137"/>
<polyline fill="#DD5526" points="345.474,500.271 336.672,500.271 335.86,503.632 335.687,504.365 302.327,504.365 306.849,523.03 
	334.449,523.03 339.077,503.791 345.064,503.791 "/>
<polygon fill="#DD5526" points="333.36,507.653 332.862,508.15 333.196,508.486 332.862,508.152 332.399,508.614 332.862,508.15 
	332.366,507.653 "/>
<polygon fill="#DD5526" points="325.183,507.653 325.056,507.778 326.539,509.27 327.657,508.15 327.162,507.653 328.155,507.653 
	327.657,508.15 327.992,508.486 327.657,508.151 326.542,509.268 327.547,510.271 326.539,509.27 325.056,510.753 325.673,511.376 
	325.055,510.756 323.939,511.87 324.608,512.538 323.937,511.874 322.454,513.354 323.161,514.069 322.452,513.358 322.454,513.354 
	320.963,511.874 319.852,512.984 321.333,514.476 321.337,514.474 321.937,515.075 321.333,514.476 319.852,515.958 320.715,516.83 
	319.849,515.961 319.852,515.958 318.36,514.476 317.852,514.981 318.359,514.475 318.36,514.476 319.852,512.984 319.851,512.984 
	320.962,511.87 320.963,511.874 322.454,510.383 322.453,510.383 323.565,509.269 323.566,509.27 325.056,507.778 325.055,507.777 
	325.18,507.653 "/>
<polygon fill="#DD5526" points="317.241,518.56 317.245,518.563 316.24,519.568 317.241,518.56 315.76,517.079 315.198,517.635 
	315.755,517.074 315.76,517.079 317.241,515.587 316.13,514.476 314.638,515.958 314.642,515.961 313.859,516.742 314.638,515.958 
	313.155,514.476 312.341,515.284 313.152,514.474 313.155,514.476 314.638,512.984 314.084,512.424 314.642,512.984 
	314.638,512.984 316.13,514.476 316.131,514.475 317.243,515.585 317.241,515.587 318.731,517.079 318.733,517.074 319.241,517.583 
	318.731,517.079 "/>
<polygon fill="#DD5526" points="310.553,511.864 310.55,511.867 309.738,511.057 310.553,511.864 312.036,510.382 311.368,509.711 
	312.04,510.38 312.036,510.382 313.526,511.864 314.639,510.753 313.155,509.262 313.154,509.265 312.485,508.596 313.155,509.262 
	314.647,507.781 314.644,507.777 314.741,507.678 314.647,507.781 316.129,509.262 316.802,508.596 316.132,509.265 
	316.129,509.262 314.639,510.753 314.641,510.753 313.528,511.867 313.526,511.864 312.036,513.355 312.038,513.357 
	311.591,513.805 312.036,513.355 "/>
<polygon fill="#DD5526" points="318.731,511.873 318.733,511.87 319.515,512.649 318.731,511.873 317.241,513.355 317.245,513.358 
	316.464,514.138 317.241,513.355 315.757,511.864 315.756,511.867 314.975,511.085 315.757,511.864 317.249,510.382 317.247,510.38 
	317.854,509.773 317.249,510.382 "/>
<polygon fill="#DD5526" points="322.95,507.653 322.454,508.15 322.96,508.657 322.452,508.152 322.454,508.15 321.956,507.653 "/>
<polygon fill="#DD5526" points="317.745,507.653 317.249,508.15 318.36,509.263 319.852,507.778 319.849,507.777 319.909,507.717 
	319.852,507.778 321.333,509.263 322.343,508.262 321.337,509.266 321.333,509.263 319.852,510.753 320.407,511.313 
	319.849,510.753 319.852,510.753 318.36,509.263 318.359,509.265 317.248,508.151 317.249,508.15 316.753,507.653 "/>
<polygon fill="#DD5526" points="307.503,511.045 308.321,511.864 309.434,510.753 307.95,509.262 307.273,509.939 306.934,508.253 
	306.938,508.256 307.276,509.937 307.948,509.263 307.339,508.657 307.95,509.262 309.434,507.781 309.348,507.688 309.437,507.777 
	309.434,507.781 310.924,509.262 312.037,508.15 311.538,507.654 312.534,507.654 312.037,508.15 312.038,508.152 310.927,509.263 
	310.924,509.262 309.434,510.753 309.435,510.753 308.322,511.867 308.321,511.864 307.778,512.417 "/>
<polygon fill="#DD5526" points="311.122,519.877 310.924,519.68 310.728,519.877 309.284,519.877 309.024,518.601 309.434,518.188 
	309.312,518.064 309.434,518.188 310.924,519.68 310.925,519.679 311.123,519.877 "/>
<polygon fill="#DD5526" points="316.327,519.877 316.13,519.68 315.933,519.877 313.354,519.877 313.155,519.68 313.054,519.779 
	313.154,519.679 312.038,518.563 311.329,519.271 312.036,518.56 310.554,517.076 309.657,517.968 310.551,517.074 310.554,517.076 
	312.036,515.585 310.925,514.476 309.433,515.958 309.435,515.961 308.654,516.741 308.652,516.738 309.433,515.958 
	308.251,514.774 308.147,514.271 309.433,512.984 308.878,512.424 309.435,512.984 309.433,512.984 310.925,514.476 
	310.927,514.475 312.038,515.585 312.036,515.585 313.526,517.076 313.528,517.076 314.641,518.188 314.638,518.188 316.13,519.68 
	316.131,519.679 316.329,519.877 "/>
<polygon fill="#DD5526" points="321.531,519.877 321.335,519.68 321.137,519.877 318.558,519.877 318.36,519.68 318.164,519.877 
	318.162,519.877 318.359,519.679 318.36,519.68 319.851,518.188 320.962,517.076 320.964,517.076 322.455,515.585 322.454,515.585 
	323.565,514.476 325.056,512.984 326.168,511.873 326.169,511.873 327.659,510.382 327.657,510.382 328.771,509.269 
	330.262,507.781 330.386,507.654 330.388,507.654 330.262,507.781 331.747,509.269 331.753,509.271 330.262,510.753 
	330.705,511.202 330.262,510.753 329.815,511.202 330.262,510.753 328.771,509.269 327.659,510.382 329.146,511.87 329.146,511.87 
	329.148,511.873 327.659,513.355 328.276,513.979 327.657,513.358 326.542,514.475 327.149,515.083 326.54,514.476 325.056,515.958 
	325.922,516.828 325.054,515.961 323.938,517.076 324.496,517.635 323.937,517.076 322.455,518.56 323.454,519.568 322.45,518.563 
	321.335,519.679 321.534,519.877 "/>
<polygon fill="#DD5526" points="331.749,514.478 330.263,515.965 330.261,515.963 330.26,515.965 328.771,514.476 328.772,514.475 
	330.26,512.987 330.261,512.987 330.261,512.984 331.748,514.474 331.748,514.475 "/>
<polygon fill="#DD5526" points="326.736,519.877 326.54,519.68 326.341,519.877 323.764,519.877 323.565,519.68 323.369,519.877 
	323.565,519.68 325.056,518.188 326.169,517.076 327.655,515.588 327.657,515.588 327.661,515.585 329.14,517.076 329.589,516.632 
	329.146,517.076 329.813,517.746 329.14,517.076 327.661,518.566 327.657,518.563 327.655,518.565 326.169,517.076 325.056,518.188 
	326.54,519.68 326.913,519.312 326.541,519.68 326.739,519.877 "/>
<polygon fill="#DD5526" points="331.886,519.877 328.968,519.877 328.772,519.68 330.26,518.191 330.26,518.192 330.262,518.191 
	331.901,519.83 "/>
<polygon fill="#DD5526" points="332.327,518.032 331.373,517.076 331.374,517.076 332.86,515.588 332.862,515.59 332.863,515.588 
	332.904,515.628 "/>
<polygon fill="#DD5526" points="333.075,514.909 333.334,513.829 333.079,513.574 333.337,513.829 "/>
<polygon fill="#DD5526" points="333.629,512.589 332.864,513.36 332.863,513.358 332.86,513.36 331.374,511.874 331.376,511.87 
	331.376,511.87 332.862,510.383 332.863,510.383 333.905,511.432 "/>
<polygon fill="#DD5526" points="334.338,509.626 333.977,509.27 333.979,509.268 333.978,509.268 334.567,508.678 "/>
<polygon fill="#DD5526" points="313.526,517.076 312.036,518.56 313.155,519.68 314.638,518.188 "/>
<polygon fill="#DD5526" points="322.454,510.383 323.937,511.874 323.939,511.87 325.056,510.75 323.566,509.27 "/>
<polygon fill="#DD5526" points="327.658,513.355 326.169,511.873 325.056,512.984 326.54,514.476 "/>
<polygon fill="#DD5526" points="325.056,515.958 323.565,514.476 322.454,515.585 323.938,517.076 "/>
<polygon fill="#DD5526" points="320.963,517.076 319.851,518.188 321.333,519.68 322.454,518.56 "/>
</svg>
